User Type,Username,Date,Text
,Dlurker,2012-08-15T23:03Z,"Nice nfo again geez what is the difference with this v2 and the previous one, it's from the same source or not? o.O

i search elsewhere and find this info, i didn't want to DL the hindi one

Genre:Action | Adventure | Sci-Fi
Language:English
IMDb:http://www.imdb.com/title/tt1386703/
Source: CrEwSaDe Thanks
Encoder:Tony

Format : AVI
Format/Info : Audio Video Interleave
File size : 1.36 GiB
Duration : 1h 45mn
Overall bit rate : 1 843 Kbps

Video
ID : 0
Format : MPEG-4 Visual
Format profile : Advanced Simple@L5
Format settings, BVOP : 1
Format settings, QPel : No
Format settings, GMC : No warppoints
Format settings, Matrix : Default (H.263)
Codec ID : XVID
Codec ID/Hint : XviD
Duration : 1h 45mn
Bit rate : 1 639 Kbps
Width : 640 pixels
Height : 272 pixels
Display aspect ratio : 2.35:1
Frame rate : 29.970 fps
Color space : YUV
Chroma subsampling : 4:2:0
Bit depth : 8 bits
Scan type : Progressive
Compression mode : Lossy
Bits/(Pixel*Frame) : 0.314
Stream size : 1.21 GiB (89%)
Writing library : XviD 1.2.1 (UTC 2008-12-04)

Audio
ID : 1
Format : AC-3
Format/Info : Audio Coding 3
Mode extension : CM (complete main)
Codec ID : 2000
Duration : 1h 45mn
Bit rate mode : Constant
Bit rate : 192 Kbps
Channel(s) : 2 channels
Channel positions : Front: L R
Sampling rate : 48.0 KHz
Bit depth : 16 bits
Compression mode : Lossy
Stream size : 145 MiB (10%)
Alignment : Split accross interleaves
Interleave, duration : 33 ms (1.00 video frame)
Interleave, preload duration : 500 ms
"
,rcr29budcar,2012-08-16T11:51Z,"One difference in this one and the earlier versions is when it shows the girl with 3 boobies in this one, she has on a bra. The earlier version that I downloaded, she did not.  Yes, I said boobies. lol"
